<svg version="1.1" xmlns="http://www.w3.org/2000/svg" style="display: block;" viewBox="280 280 1488 1488" width="1024" height="1024" preserveAspectRatio="xMidYMid meet">
<!-- Transparent background - no background path -->
<!-- Bottom semi-circle (red fill) -->
<path transform="translate(0,0)" fill="rgb(254,0,0)" d="M 311.63 1058.1 L 1736.29 1058.28 C 1733.23 1174.58 1689.22 1307.09 1626.83 1404.66 C 1597.67 1450.26 1564.96 1489.31 1527.36 1528.01 C 1397.42 1654.99 1234.61 1729.58 1052.12 1736.64 C 863.646 1743.97 680.001 1676 541.722 1547.72 C 403.163 1421.46 320.403 1245.35 311.63 1058.1 z"/>
<!-- Bottom semi-circle white outline/details -->
<path transform="translate(0,0)" fill="rgb(255,255,255)" d="M 1375.68 1110.51 L 1643.37 1110.91 C 1622.15 1258.95 1555.79 1383.27 1445.91 1485.07 C 1325.27 1596.7 1165.3 1655.96 1001.05 1649.84 C 824.52 1642.8 675.225 1567.26 556.16 1438.6 C 469.87 1342.6 423.825 1237.03 403.565 1110.72 L 1196.05 1110.85 C 1145.91 1135 1101.58 1171.3 1093.2 1230.03 C 1085.74 1286.55 1128.63 1327.19 1182.98 1333.26 C 1263.12 1342.21 1359.72 1285.53 1374.34 1202.52 C 1377 1187.44 1375 1169.31 1375.4 1153.86 C 1375.75 1140.17 1373.89 1123.97 1375.68 1110.51 z"/>
<!-- Music note head (red fill) -->
<path transform="translate(0,0)" fill="rgb(254,0,0)" d="M 858.772 1137.16 L 918.194 1137.1 C 919.308 1175.6 919.051 1215.3 918.664 1253.77 C 918.155 1304.36 926.967 1350.75 894.462 1393.67 C 849.285 1453.32 768.481 1486.6 696.259 1461.25 C 675.577 1452.26 656.312 1438.22 646.51 1417.56 C 614.246 1349.54 671.623 1277.68 731.01 1249.42 C 773.402 1229.24 814.318 1223.39 858.204 1238.36 L 858.772 1137.16 z"/>
<!-- Top semi-circle (red fill) -->
<path transform="translate(0,0)" fill="rgb(254,0,0)" d="M 990.014 311.431 C 1159.33 303.371 1325.95 356.152 1459.74 460.234 C 1582.59 555.254 1671.29 687.556 1712.55 837.278 C 1724.72 881.978 1729.33 913.512 1735.13 958.611 L 1056.24 958.286 L 312.769 958.664 C 327.141 806.935 389.837 663.827 491.632 550.399 C 619.213 407.426 798.653 321.387 990.014 311.431 z"/>
<!-- Top semi-circle white outline/details -->
<path transform="translate(0,0)" fill="rgb(255,255,255)" d="M 1004.7 397.446 C 1126.25 390.77 1261.09 431.935 1362.72 497.71 C 1480.62 574.189 1569.83 687.593 1616.41 820.177 C 1627.07 850.747 1632.59 874.397 1639.29 905.537 C 1570.66 907.075 1497.13 905.73 1428.19 905.718 L 1042.75 905.847 L 408.232 905.712 C 430.273 792.677 483.261 687.98 561.292 603.281 C 677.693 475.094 832.66 405.767 1004.7 397.446 z"/>
<!-- Music note stem (red fill) -->
<path transform="translate(0,0)" fill="rgb(254,0,0)" d="M 1373.48 572.123 L 1374.2 572.251 C 1376.49 576.229 1375.34 604.411 1375.3 611.522 L 1375.53 671.572 L 1375.59 878.235 C 1355.89 878.502 1335.25 878.191 1315.48 878.154 L 1315.36 749.61 C 1262.41 763.255 1208.43 778.597 1155.61 793.034 L 960.839 845.79 L 918.84 856.864 L 918.82 878.386 L 858.593 878.15 L 858.061 712.749 C 876.519 709.278 903.022 701.02 921.857 695.814 L 1029.72 666.35 L 1373.48 572.123 z"/>
</svg>